<?xml version="1.0" encoding="UTF-8"?>
<svg id="Layer_1" xmlns="http://www.w3.org/2000/svg" version="1.1" viewBox="0 0 1080 1080">
  <!-- Generator: Adobe Illustrator 30.2.1, SVG Export Plug-In . SVG Version: 2.1.1 Build 1)  -->
  <defs>
    <style>
      .st0 {
        fill: #049dd9;
      }

      .st1 {
        fill: #15a649;
      }

      .st2 {
        fill: none;
        stroke: #000;
        stroke-miterlimit: 10;
        stroke-width: 24px;
      }

      .st3 {
        fill: #f3c74a;
      }
    </style>
  </defs>
  <g>
    <path class="st1" d="M535.1,244.3c99.7,60.7,166.4,170.4,166.4,295.7s-72.5,244.4-179.4,303.2c-99.7-60.7-166.4-170.4-166.4-295.7s72.5-244.4,179.4-303.2Z"/>
    <path class="st3" d="M535.1,244.3c-107,58.8-179.4,172.5-179.4,303.2s66.6,235,166.4,295.7c-49.4,27.2-106.1,42.6-166.4,42.6-191,0-345.8-154.8-345.8-345.8S164.7,194.2,355.6,194.2s127.1,18.3,179.4,50.1Z"/>
    <path class="st0" d="M701.4,201.8c191,0,345.8,154.8,345.8,345.8s-154.8,345.8-345.8,345.8-127.1-18.3-179.4-50.1c107-58.8,179.4-172.5,179.4-303.2s-66.6-235-166.4-295.7c49.4-27.1,106.1-42.6,166.4-42.6Z"/>
  </g>
  <path class="st2" d="M225.1,670.9c80,71.5,139.5,72.3,166.4,69.1,54.4-6.4,108.5-45.3,148.6-74.1,35.2-25.3,60.6-50,109.5-63,28.4-7.5,51.3-7.5,58-7.4,79,1.3,136.4,53.6,155.6,72.7"/>
  <ellipse cx="842.9" cy="435.2" rx="55.2" ry="86.5"/>
  <ellipse cx="526" cy="435.2" rx="55.2" ry="86.5"/>
  <ellipse cx="225.1" cy="435.2" rx="55.2" ry="86.5"/>
</svg>